# xmcd
#
# Track frame offsets:
# 150
# 11530
# 24203
# 38935
# 52409
# 65185
# 82744
# 95448
# 110251
# 122723
# 138074
# 150930
# 163281
# 175830
# 186183
# 198063
# 212779
# 223727
#
# Disc length: 3138 seconds
#
# Revision: 3
# Processed by: cddbd v1.5.1PL2 Copyright (c) Steve Scherf et al.
# Submitted via: Audio-CD-Archiv 4.00.530
#
DISCID=f20c4012
DTITLE=Hall and Oates - Backtracks
DYEAR=1900
DGENRE=blues
TTITLE0=Hall and Oates - In Honor Of A Lady
TTITLE1=Hall and Oates - Deep River Blues
TTITLE2=Hall and Oates - The Reason Why
TTITLE3=Hall and Oates - If That's What Makes You Happy
TTITLE4=Hall and Oates - The Provider
TTITLE5=Hall and Oates - They Need Each Other
TTITLE6=Hall and Oates - Angelina
TTITLE7=Hall and Oates - I'll Be By
TTITLE8=Hall and Oates - Per Kiomen
TTITLE9=Hall and Oates - A Lot Of Changes Coming
TTITLE10=Hall and Oates - Fall In Philadelphia
TTITLE11=Hall and Oates - Drying In The Sun
TTITLE12=Hall and Oates - Good Night And Good Morning
TTITLE13=Hall and Oates - I'm Tired Of Wearing Buckskin
TTITLE14=Hall and Oates - Sally
TTITLE15=Hall and Oates - Past Times
TTITLE16=Hall and Oates - Months, Weeks And Days
TTITLE17=Hall and Oates - Back In Love Again
EXTD=
EXTT0=
EXTT1=
EXTT2=
EXTT3=
EXTT4=
EXTT5=
EXTT6=
EXTT7=
EXTT8=
EXTT9=
EXTT10=
EXTT11=
EXTT12=
EXTT13=
EXTT14=
EXTT15=
EXTT16=
EXTT17=
PLAYORDER=
